<svg width="560" height="135" viewBox="0 0 560 135" fill="none" xmlns="http://www.w3.org/2000/svg">
<path d="M10.2745 25.0099C13.0347 25.0099 15.2722 22.7723 15.2722 20.0121C15.2722 17.2519 13.0347 15.0144 10.2745 15.0144C7.5143 15.0144 5.27673 17.2519 5.27673 20.0121C5.27673 22.7723 7.5143 25.0099 10.2745 25.0099Z" fill="url(#paint0_linear_134_7)"/>
<path d="M40.2475 64.9784C43.0077 64.9784 45.2453 62.7408 45.2453 59.9806C45.2453 57.2204 43.0077 54.9829 40.2475 54.9829C37.4873 54.9829 35.2498 57.2204 35.2498 59.9806C35.2498 62.7408 37.4873 64.9784 40.2475 64.9784Z" fill="url(#paint1_linear_134_7)"/>
<path d="M127.374 105.459V99.4298C128.389 98.9336 129.206 98.1082 129.692 97.0882C130.177 96.0683 130.303 94.9139 130.048 93.8134C129.794 92.7128 129.174 91.7309 128.289 91.0279C127.405 90.325 126.309 89.9423 125.179 89.9423C124.05 89.9423 122.953 90.325 122.069 91.0279C121.185 91.7309 120.565 92.7128 120.31 93.8134C120.055 94.9139 120.181 96.0683 120.667 97.0882C121.152 98.1082 121.969 98.9336 122.984 99.4298V105.459C121.969 105.956 121.152 106.781 120.667 107.801C120.181 108.821 120.055 109.975 120.31 111.076C120.565 112.176 121.185 113.158 122.069 113.861C122.953 114.564 124.05 114.947 125.179 114.947C126.309 114.947 127.405 114.564 128.289 113.861C129.174 113.158 129.794 112.176 130.048 111.076C130.303 109.975 130.177 108.821 129.692 107.801C129.206 106.781 128.389 105.956 127.374 105.459Z" fill="url(#paint2_linear_134_7)"/>
<path d="M28.2556 55.9878V48.9801C29.095 48.3508 29.715 47.4735 30.0279 46.4722C30.3408 45.471 30.3307 44.3966 29.9991 43.4014C29.6674 42.4062 29.031 41.5406 28.1801 40.9272C27.3291 40.3138 26.3067 39.9837 25.2577 39.9837C24.2087 39.9837 23.1862 40.3138 22.3353 40.9272C21.4843 41.5406 20.8479 42.4062 20.5162 43.4014C20.1846 44.3966 20.1745 45.471 20.4874 46.4722C20.8003 47.4735 21.4204 48.3508 22.2597 48.9801V55.9878C21.4204 56.617 20.8003 57.4945 20.4874 58.4958C20.1745 59.497 20.1846 60.5713 20.5162 61.5666C20.8479 62.5618 21.4843 63.4274 22.3353 64.0408C23.1862 64.6542 24.2087 64.9842 25.2577 64.9842C26.3067 64.9842 27.3291 64.6542 28.1801 64.0408C29.031 63.4274 29.6674 62.5618 29.9991 61.5666C30.3307 60.5713 30.3408 59.497 30.0279 58.4958C29.715 57.4945 29.095 56.617 28.2556 55.9878Z" fill="url(#paint3_linear_134_7)"/>
<path d="M118.181 60.9855V48.9801C119.021 48.3513 119.642 47.4741 119.956 46.4727C120.27 45.4713 120.26 44.3966 119.929 43.4009C119.597 42.4052 118.961 41.5391 118.11 40.9253C117.259 40.3115 116.236 39.9812 115.187 39.9812C114.137 39.9812 113.115 40.3115 112.263 40.9253C111.412 41.5391 110.776 42.4052 110.445 43.4009C110.113 44.3966 110.104 45.4713 110.417 46.4727C110.731 47.4741 111.352 48.3513 112.192 48.9801V60.9855C111.352 61.6143 110.731 62.4915 110.417 63.4929C110.104 64.4943 110.113 65.5691 110.445 66.5648C110.776 67.5605 111.412 68.4267 112.263 69.0404C113.115 69.6542 114.137 69.9845 115.187 69.9845C116.236 69.9845 117.259 69.6542 118.11 69.0404C118.961 68.4267 119.597 67.5605 119.929 66.5648C120.26 65.5691 120.27 64.4943 119.956 63.4929C119.642 62.4915 119.021 61.6143 118.181 60.9855Z" fill="url(#paint4_linear_134_7)"/>
<path d="M75.2183 15.0143C75.2197 14.1619 75.0031 13.3232 74.589 12.5781C74.1749 11.8329 73.577 11.2061 72.8523 10.7572C72.1276 10.3083 71.3001 10.0522 70.4485 10.0134C69.5969 9.97446 68.7496 10.1541 67.987 10.5351C67.2244 10.9161 66.5718 11.4858 66.0915 12.19C65.6112 12.8943 65.319 13.7097 65.2428 14.5588C65.1665 15.4078 65.3087 16.2622 65.6558 17.0408C66.0029 17.8195 66.5434 18.4964 67.2259 19.0072V28.4968L60.8657 35.0459C60.6556 35.0165 60.4439 35.0007 60.2317 34.9986C59.2433 34.9986 58.277 35.2917 57.4551 35.8409C56.6332 36.39 55.9927 37.1706 55.6144 38.0838C55.2362 38.997 55.1372 40.0019 55.33 40.9713C55.5229 41.9408 55.9989 42.8313 56.6978 43.5303C57.3968 44.2292 58.2872 44.7052 59.2567 44.8981C60.2262 45.0909 61.2311 44.992 62.1443 44.6137C63.0575 44.2354 63.838 43.5949 64.3872 42.773C64.9363 41.9511 65.2295 40.9848 65.2295 39.9964C65.2274 39.7365 65.2048 39.4771 65.162 39.2207L73.2555 30.9316V19.0072C73.8688 18.5384 74.3652 17.934 74.7057 17.2412C75.0462 16.5485 75.2217 15.7862 75.2183 15.0143Z" fill="url(#paint5_linear_134_7)"/>
<path d="M103.195 90.9585V39.0251C104.034 38.3958 104.654 37.5184 104.967 36.5172C105.28 35.5159 105.27 34.4416 104.938 33.4464C104.607 32.4512 103.97 31.5855 103.119 30.9721C102.268 30.3587 101.246 30.0286 100.197 30.0286C99.1479 30.0286 98.1255 30.3587 97.2745 30.9721C96.4235 31.5855 95.7871 32.4512 95.4555 33.4464C95.1238 34.4416 95.1137 35.5159 95.4267 36.5172C95.7396 37.5184 96.3596 38.3958 97.1989 39.0251V72.7481L88.2085 63.7643V59.0026C89.0478 58.3733 89.6677 57.4959 89.9806 56.4947C90.2935 55.4934 90.2834 54.4191 89.9518 53.4239C89.6201 52.4287 88.9839 51.5631 88.1329 50.9497C87.2819 50.3363 86.2595 50.0061 85.2105 50.0061C84.1614 50.0061 83.139 50.3363 82.288 50.9497C81.437 51.5631 80.8006 52.4287 80.469 53.4239C80.1373 54.4191 80.1273 55.4934 80.4402 56.4947C80.7531 57.4959 81.3731 58.3733 82.2124 59.0026V66.2464L97.1989 81.2329V90.9855C96.3575 91.6151 95.7356 92.4934 95.4214 93.4962C95.1072 94.499 95.1167 95.5753 95.4484 96.5725C95.7801 97.5696 96.4172 98.4369 97.2696 99.0516C98.1219 99.6663 99.1461 99.9971 100.197 99.9971C101.248 99.9971 102.272 99.6663 103.124 99.0516C103.977 98.4369 104.614 97.5696 104.945 96.5725C105.277 95.5753 105.287 94.499 104.973 93.4962C104.658 92.4934 104.036 91.6151 103.195 90.9855V90.9585Z" fill="url(#paint6_linear_134_7)"/>
<path d="M88.2086 110.977V83.7553L73.2219 68.7621V51.2598L88.2086 36.2733V19.0408C89.0479 18.4116 89.6678 17.5342 89.9807 16.5329C90.2936 15.5317 90.2835 14.4573 89.9518 13.4621C89.6202 12.4669 88.984 11.6013 88.133 10.9879C87.282 10.3745 86.2595 10.0444 85.2105 10.0444C84.1615 10.0444 83.1391 10.3745 82.2881 10.9879C81.4371 11.6013 80.8007 12.4669 80.4691 13.4621C80.1374 14.4573 80.1273 15.5317 80.4402 16.5329C80.7532 17.5342 81.3732 18.4116 82.2125 19.0408V33.7914L67.226 48.7778V88.7194L52.2395 103.706V110.977C51.4002 111.606 50.7802 112.483 50.4673 113.484C50.1544 114.486 50.1644 115.56 50.4961 116.555C50.8277 117.55 51.4641 118.416 52.3151 119.029C53.1661 119.643 54.1885 119.973 55.2375 119.973C56.2865 119.973 57.3089 119.643 58.1599 119.029C59.0109 118.416 59.6472 117.55 59.9789 116.555C60.3105 115.56 60.3206 114.486 60.0077 113.484C59.6948 112.483 59.0748 111.606 58.2355 110.977V106.255L73.2219 91.2621V77.2738L82.2125 86.2711V93.7778L67.226 108.764V126.004C66.3867 126.633 65.7667 127.51 65.4538 128.511C65.1408 129.513 65.1509 130.587 65.4826 131.582C65.8142 132.577 66.4506 133.443 67.3016 134.056C68.1526 134.67 69.175 135 70.224 135C71.273 135 72.2953 134.67 73.1463 134.056C73.9973 133.443 74.6337 132.577 74.9654 131.582C75.297 130.587 75.3071 129.513 74.9942 128.511C74.6813 127.51 74.0612 126.633 73.2219 126.004V111.179L82.2125 102.188V110.956C81.3732 111.586 80.7532 112.463 80.4402 113.464C80.1273 114.466 80.1374 115.54 80.4691 116.535C80.8007 117.53 81.4371 118.396 82.2881 119.009C83.1391 119.623 84.1615 119.953 85.2105 119.953C86.2595 119.953 87.282 119.623 88.133 119.009C88.984 118.396 89.6202 117.53 89.9518 116.535C90.2835 115.54 90.2936 114.466 89.9807 113.464C89.6678 112.463 89.0479 111.586 88.2086 110.956V110.977Z" fill="url(#paint7_linear_134_7)"/>
<path d="M43.2758 16.0192V9.01159C44.1151 8.38233 44.7351 7.50495 45.048 6.50369C45.361 5.50243 45.3509 4.42809 45.0192 3.43289C44.6876 2.43768 44.0512 1.57206 43.2002 0.958657C42.3492 0.345252 41.3268 0.0151367 40.2778 0.0151367C39.2288 0.0151367 38.2064 0.345252 37.3554 0.958657C36.5044 1.57206 35.868 2.43768 35.5364 3.43289C35.2047 4.42809 35.1946 5.50243 35.5075 6.50369C35.8205 7.50495 36.4405 8.38233 37.2798 9.01159V16.0192C36.4384 16.6488 35.8165 17.5272 35.5023 18.53C35.1881 19.5328 35.1975 20.6091 35.5292 21.6062C35.8609 22.6033 36.4981 23.4707 37.3505 24.0854C38.2028 24.7001 39.227 25.0309 40.2778 25.0309C41.3287 25.0309 42.3528 24.7001 43.2051 24.0854C44.0575 23.4707 44.6947 22.6033 45.0264 21.6062C45.3581 20.6091 45.3675 19.5328 45.0533 18.53C44.7391 17.5272 44.1172 16.6488 43.2758 16.0192Z" fill="url(#paint8_linear_134_7)"/>
<path d="M58.2355 80.9698V53.7419L44.4832 39.9964L58.2355 26.2508V9.0116C59.0769 8.38208 59.6988 7.50368 60.013 6.5009C60.3272 5.49812 60.3178 4.42188 59.9861 3.42475C59.6544 2.42762 59.0172 1.5602 58.1648 0.945496C57.3125 0.330796 56.2883 0 55.2375 0C54.1866 0 53.1624 0.330796 52.3101 0.945496C51.4578 1.5602 50.8206 2.42762 50.4888 3.42475C50.1571 4.42188 50.1477 5.49812 50.4619 6.5009C50.7761 7.50368 51.3981 8.38208 52.2395 9.0116V23.7688L40.2476 35.754L28.2557 23.7688V14.0094C29.095 13.3801 29.715 12.5027 30.0279 11.5015C30.3409 10.5002 30.3308 9.42588 29.9991 8.43067C29.6675 7.43546 29.0311 6.56985 28.1801 5.95644C27.3291 5.34304 26.3067 5.01292 25.2577 5.01292C24.2087 5.01292 23.1863 5.34304 22.3353 5.95644C21.4843 6.56985 20.8479 7.43546 20.5163 8.43067C20.1846 9.42588 20.1745 10.5002 20.4874 11.5015C20.8004 12.5027 21.4204 13.3801 22.2597 14.0094V23.7688L7.27323 38.7554V45.9991C6.43391 46.6283 5.81386 47.5057 5.50096 48.507C5.18805 49.5082 5.19813 50.5826 5.52977 51.5778C5.86142 52.573 6.49783 53.4386 7.34881 54.052C8.19978 54.6654 9.22215 54.9955 10.2712 54.9955C11.3202 54.9955 12.3426 54.6654 13.1936 54.052C14.0446 53.4386 14.681 52.573 15.0126 51.5778C15.3443 50.5826 15.3544 49.5082 15.0415 48.507C14.7285 47.5057 14.1085 46.6283 13.2692 45.9991V41.2373L25.2611 29.2454L52.2395 56.2238V80.9698C51.4002 81.5991 50.7802 82.4765 50.4673 83.4777C50.1544 84.479 50.1644 85.5533 50.4961 86.5485C50.8277 87.5437 51.4641 88.4093 52.3151 89.0228C53.1661 89.6362 54.1885 89.9663 55.2375 89.9663C56.2865 89.9663 57.3089 89.6362 58.1599 89.0228C59.0109 88.4093 59.6472 87.5437 59.9789 86.5485C60.3105 85.5533 60.3206 84.479 60.0077 83.4777C59.6948 82.4765 59.0748 81.5991 58.2355 80.9698Z" fill="url(#paint9_linear_134_7)"/>
<path d="M188.796 46H185.858L184.22 41.502H177.018L175.38 46H172.52L178.994 28.84H182.322L188.796 46ZM177.798 39.24H183.44L180.632 31.232L177.798 39.24ZM206.581 31.232H196.961V36.224H204.501V38.616H196.961V46H194.179V28.84H206.581V31.232ZM219.408 28.84C221.245 28.84 222.701 29.2993 223.776 30.218C224.868 31.1367 225.414 32.376 225.414 33.936C225.414 35.548 224.868 36.796 223.776 37.68C222.701 38.5467 221.245 38.98 219.408 38.98L219.148 39.136H215.17V46H212.414V28.84H219.408ZM219.2 36.822C220.326 36.822 221.158 36.5967 221.696 36.146C222.25 35.678 222.528 34.9673 222.528 34.014C222.528 33.078 222.25 32.376 221.696 31.908C221.158 31.44 220.326 31.206 219.2 31.206H215.17V36.822H219.2ZM220.838 37.394L226.428 46H223.23L218.446 38.486L220.838 37.394ZM235.004 28.84V46H232.222V28.84H235.004ZM256.655 41.45C256.309 42.49 255.789 43.374 255.095 44.102C254.402 44.8127 253.587 45.35 252.651 45.714C251.715 46.078 250.684 46.26 249.557 46.26C247.911 46.26 246.481 45.9047 245.267 45.194C244.054 44.4833 243.118 43.4693 242.459 42.152C241.801 40.8347 241.471 39.2573 241.471 37.42C241.471 35.5827 241.801 34.0053 242.459 32.688C243.118 31.3707 244.054 30.3567 245.267 29.646C246.481 28.9353 247.902 28.58 249.531 28.58C250.658 28.58 251.672 28.736 252.573 29.048C253.492 29.36 254.272 29.828 254.913 30.452C255.555 31.076 256.049 31.856 256.395 32.792L253.769 33.962C253.423 32.9393 252.92 32.194 252.261 31.726C251.603 31.2407 250.745 30.998 249.687 30.998C248.63 30.998 247.703 31.2493 246.905 31.752C246.108 32.2547 245.484 32.9827 245.033 33.936C244.6 34.8893 244.383 36.0507 244.383 37.42C244.383 38.772 244.591 39.9333 245.007 40.904C245.423 41.8573 246.021 42.5853 246.801 43.088C247.581 43.5907 248.517 43.842 249.609 43.842C250.667 43.842 251.577 43.5733 252.339 43.036C253.119 42.4813 253.674 41.658 254.003 40.566L256.655 41.45ZM276.795 46H273.857L272.219 41.502H265.017L263.379 46H260.519L266.993 28.84H270.321L276.795 46ZM265.797 39.24H271.439L268.631 31.232L265.797 39.24ZM296.244 28.84V46H292.942L286.312 35.184L284.648 32.142H284.622L284.726 34.924V46H282.178V28.84H285.454L292.058 39.63L293.748 42.724H293.774L293.67 39.916V28.84H296.244ZM321.581 28.58C323.245 28.58 324.684 28.9353 325.897 29.646C327.111 30.3567 328.047 31.3707 328.705 32.688C329.364 34.0053 329.693 35.5827 329.693 37.42C329.693 39.2573 329.364 40.8347 328.705 42.152C328.047 43.4693 327.111 44.4833 325.897 45.194C324.684 45.9047 323.245 46.26 321.581 46.26C319.935 46.26 318.505 45.9047 317.291 45.194C316.078 44.4833 315.142 43.4693 314.483 42.152C313.825 40.8347 313.495 39.2573 313.495 37.42C313.495 35.5827 313.825 34.0053 314.483 32.688C315.142 31.3707 316.078 30.3567 317.291 29.646C318.505 28.9353 319.935 28.58 321.581 28.58ZM321.581 30.998C320.507 30.998 319.579 31.2493 318.799 31.752C318.037 32.2547 317.447 32.9827 317.031 33.936C316.615 34.8893 316.407 36.0507 316.407 37.42C316.407 38.772 316.615 39.9333 317.031 40.904C317.447 41.8573 318.037 42.5853 318.799 43.088C319.579 43.5907 320.507 43.842 321.581 43.842C322.673 43.842 323.601 43.5907 324.363 43.088C325.143 42.5853 325.741 41.8573 326.157 40.904C326.573 39.9333 326.781 38.772 326.781 37.42C326.781 36.0507 326.573 34.8893 326.157 33.936C325.741 32.9827 325.143 32.2547 324.363 31.752C323.601 31.2493 322.673 30.998 321.581 30.998ZM336.17 46V28.84H342.93C344.993 28.84 346.501 29.256 347.454 30.088C348.408 30.92 348.884 32.0727 348.884 33.546C348.884 34.4473 348.624 35.2533 348.104 35.964C347.584 36.6573 346.822 37.0993 345.816 37.29V37.316C346.926 37.4893 347.784 37.9487 348.39 38.694C349.014 39.422 349.326 40.2713 349.326 41.242C349.326 42.7153 348.789 43.8767 347.714 44.726C346.64 45.5753 345.08 46 343.034 46H336.17ZM338.9 43.686H343.164C344.256 43.686 345.071 43.4607 345.608 43.01C346.163 42.5593 346.44 41.9267 346.44 41.112C346.44 40.2973 346.163 39.6647 345.608 39.214C345.071 38.7633 344.256 38.538 343.164 38.538H338.9V43.686ZM338.9 36.224H342.722C344.906 36.224 345.998 35.3833 345.998 33.702C345.998 32.0207 344.906 31.18 342.722 31.18H338.9V36.224ZM361.575 28.58C363.118 28.58 364.453 28.8747 365.579 29.464C366.706 30.036 367.659 30.8853 368.439 32.012L366.567 33.806C365.909 32.8007 365.163 32.0813 364.331 31.648C363.517 31.1973 362.546 30.972 361.419 30.972C360.587 30.972 359.903 31.0847 359.365 31.31C358.828 31.5353 358.429 31.8387 358.169 32.22C357.927 32.584 357.805 33 357.805 33.468C357.805 34.0053 357.987 34.4733 358.351 34.872C358.733 35.2707 359.435 35.5827 360.457 35.808L363.941 36.588C365.605 36.952 366.784 37.5067 367.477 38.252C368.171 38.9973 368.517 39.942 368.517 41.086C368.517 42.1433 368.231 43.062 367.659 43.842C367.087 44.622 366.29 45.22 365.267 45.636C364.262 46.052 363.075 46.26 361.705 46.26C360.492 46.26 359.4 46.104 358.429 45.792C357.459 45.48 356.609 45.0553 355.881 44.518C355.153 43.9807 354.555 43.3653 354.087 42.672L356.011 40.748C356.375 41.3547 356.835 41.9007 357.389 42.386C357.944 42.854 358.585 43.218 359.313 43.478C360.059 43.738 360.882 43.868 361.783 43.868C362.581 43.868 363.265 43.7727 363.837 43.582C364.427 43.3913 364.869 43.114 365.163 42.75C365.475 42.3687 365.631 41.918 365.631 41.398C365.631 40.8953 365.458 40.4533 365.111 40.072C364.782 39.6907 364.158 39.396 363.239 39.188L359.469 38.33C358.429 38.1047 357.571 37.784 356.895 37.368C356.219 36.952 355.717 36.4493 355.387 35.86C355.058 35.2533 354.893 34.5773 354.893 33.832C354.893 32.8613 355.153 31.986 355.673 31.206C356.211 30.4087 356.982 29.776 357.987 29.308C358.993 28.8227 360.189 28.58 361.575 28.58ZM374.747 46V28.84H387.175V31.232H377.529V36.172H385.069V38.512H377.529V43.608H387.539V46H374.747ZM400.61 28.84C402.448 28.84 403.904 29.2993 404.978 30.218C406.07 31.1367 406.616 32.376 406.616 33.936C406.616 35.548 406.07 36.796 404.978 37.68C403.904 38.5467 402.448 38.98 400.61 38.98L400.35 39.136H396.372V46H393.616V28.84H400.61ZM400.402 36.822C401.529 36.822 402.361 36.5967 402.898 36.146C403.453 35.678 403.73 34.9673 403.73 34.014C403.73 33.078 403.453 32.376 402.898 31.908C402.361 31.44 401.529 31.206 400.402 31.206H396.372V36.822H400.402ZM402.04 37.394L407.63 46H404.432L399.648 38.486L402.04 37.394ZM427.16 28.84L420.79 46H417.54L411.17 28.84H414.134L418.138 40.254L419.178 43.66L420.218 40.28L424.222 28.84H427.16ZM445.222 46H442.284L440.646 41.502H433.444L431.806 46H428.946L435.42 28.84H438.748L445.222 46ZM434.224 39.24H439.866L437.058 31.232L434.224 39.24ZM461.086 28.84V31.232H455.21V46H452.428V31.232H446.552V28.84H461.086ZM473.272 28.58C474.936 28.58 476.375 28.9353 477.588 29.646C478.801 30.3567 479.737 31.3707 480.396 32.688C481.055 34.0053 481.384 35.5827 481.384 37.42C481.384 39.2573 481.055 40.8347 480.396 42.152C479.737 43.4693 478.801 44.4833 477.588 45.194C476.375 45.9047 474.936 46.26 473.272 46.26C471.625 46.26 470.195 45.9047 468.982 45.194C467.769 44.4833 466.833 43.4693 466.174 42.152C465.515 40.8347 465.186 39.2573 465.186 37.42C465.186 35.5827 465.515 34.0053 466.174 32.688C466.833 31.3707 467.769 30.3567 468.982 29.646C470.195 28.9353 471.625 28.58 473.272 28.58ZM473.272 30.998C472.197 30.998 471.27 31.2493 470.49 31.752C469.727 32.2547 469.138 32.9827 468.722 33.936C468.306 34.8893 468.098 36.0507 468.098 37.42C468.098 38.772 468.306 39.9333 468.722 40.904C469.138 41.8573 469.727 42.5853 470.49 43.088C471.27 43.5907 472.197 43.842 473.272 43.842C474.364 43.842 475.291 43.5907 476.054 43.088C476.834 42.5853 477.432 41.8573 477.848 40.904C478.264 39.9333 478.472 38.772 478.472 37.42C478.472 36.0507 478.264 34.8893 477.848 33.936C477.432 32.9827 476.834 32.2547 476.054 31.752C475.291 31.2493 474.364 30.998 473.272 30.998ZM494.855 28.84C496.693 28.84 498.149 29.2993 499.223 30.218C500.315 31.1367 500.861 32.376 500.861 33.936C500.861 35.548 500.315 36.796 499.223 37.68C498.149 38.5467 496.693 38.98 494.855 38.98L494.595 39.136H490.617V46H487.861V28.84H494.855ZM494.647 36.822C495.774 36.822 496.606 36.5967 497.143 36.146C497.698 35.678 497.975 34.9673 497.975 34.014C497.975 33.078 497.698 32.376 497.143 31.908C496.606 31.44 495.774 31.206 494.647 31.206H490.617V36.822H494.647ZM496.285 37.394L501.875 46H498.677L493.893 38.486L496.285 37.394ZM519.674 28.84L513.538 39.422V46H510.756V39.422L504.646 28.84H507.74L510.808 34.378L512.16 36.926L513.512 34.378L516.554 28.84H519.674ZM181.672 58.58C183.336 58.58 184.775 58.9353 185.988 59.646C187.201 60.3567 188.137 61.3707 188.796 62.688C189.455 64.0053 189.784 65.5827 189.784 67.42C189.784 69.2573 189.455 70.8347 188.796 72.152C188.137 73.4693 187.201 74.4833 185.988 75.194C184.775 75.9047 183.336 76.26 181.672 76.26C180.025 76.26 178.595 75.9047 177.382 75.194C176.169 74.4833 175.233 73.4693 174.574 72.152C173.915 70.8347 173.586 69.2573 173.586 67.42C173.586 65.5827 173.915 64.0053 174.574 62.688C175.233 61.3707 176.169 60.3567 177.382 59.646C178.595 58.9353 180.025 58.58 181.672 58.58ZM181.672 60.998C180.597 60.998 179.67 61.2493 178.89 61.752C178.127 62.2547 177.538 62.9827 177.122 63.936C176.706 64.8893 176.498 66.0507 176.498 67.42C176.498 68.772 176.706 69.9333 177.122 70.904C177.538 71.8573 178.127 72.5853 178.89 73.088C179.67 73.5907 180.597 73.842 181.672 73.842C182.764 73.842 183.691 73.5907 184.454 73.088C185.234 72.5853 185.832 71.8573 186.248 70.904C186.664 69.9333 186.872 68.772 186.872 67.42C186.872 66.0507 186.664 64.8893 186.248 63.936C185.832 62.9827 185.234 62.2547 184.454 61.752C183.691 61.2493 182.764 60.998 181.672 60.998ZM210.327 58.84V76H207.025L200.395 65.184L198.731 62.142H198.705L198.809 64.924V76H196.261V58.84H199.537L206.141 69.63L207.831 72.724H207.857L207.753 69.916V58.84H210.327ZM235.535 58.84C237.372 58.84 238.828 59.2993 239.903 60.218C240.995 61.1367 241.541 62.376 241.541 63.936C241.541 65.548 240.995 66.796 239.903 67.68C238.828 68.5467 237.372 68.98 235.535 68.98L235.275 69.136H231.297V76H228.541V58.84H235.535ZM235.327 66.822C236.453 66.822 237.285 66.5967 237.823 66.146C238.377 65.678 238.655 64.9673 238.655 64.014C238.655 63.078 238.377 62.376 237.823 61.908C237.285 61.44 236.453 61.206 235.327 61.206H231.297V66.822H235.327ZM236.965 67.394L242.555 76H239.357L234.573 68.486L236.965 67.394ZM248.349 76V58.84H260.777V61.232H251.131V66.172H258.671V68.512H251.131V73.608H261.141V76H248.349ZM273.069 58.58C274.611 58.58 275.946 58.8747 277.073 59.464C278.199 60.036 279.153 60.8853 279.933 62.012L278.061 63.806C277.402 62.8007 276.657 62.0813 275.825 61.648C275.01 61.1973 274.039 60.972 272.913 60.972C272.081 60.972 271.396 61.0847 270.859 61.31C270.321 61.5353 269.923 61.8387 269.663 62.22C269.42 62.584 269.299 63 269.299 63.468C269.299 64.0053 269.481 64.4733 269.845 64.872C270.226 65.2707 270.928 65.5827 271.951 65.808L275.435 66.588C277.099 66.952 278.277 67.5067 278.971 68.252C279.664 68.9973 280.011 69.942 280.011 71.086C280.011 72.1433 279.725 73.062 279.153 73.842C278.581 74.622 277.783 75.22 276.761 75.636C275.755 76.052 274.568 76.26 273.199 76.26C271.985 76.26 270.893 76.104 269.923 75.792C268.952 75.48 268.103 75.0553 267.375 74.518C266.647 73.9807 266.049 73.3653 265.581 72.672L267.505 70.748C267.869 71.3547 268.328 71.9007 268.883 72.386C269.437 72.854 270.079 73.218 270.807 73.478C271.552 73.738 272.375 73.868 273.277 73.868C274.074 73.868 274.759 73.7727 275.331 73.582C275.92 73.3913 276.362 73.114 276.657 72.75C276.969 72.3687 277.125 71.918 277.125 71.398C277.125 70.8953 276.951 70.4533 276.605 70.072C276.275 69.6907 275.651 69.396 274.733 69.188L270.963 68.33C269.923 68.1047 269.065 67.784 268.389 67.368C267.713 66.952 267.21 66.4493 266.881 65.86C266.551 65.2533 266.387 64.5773 266.387 63.832C266.387 62.8613 266.647 61.986 267.167 61.206C267.704 60.4087 268.475 59.776 269.481 59.308C270.486 58.8227 271.682 58.58 273.069 58.58ZM292.844 58.84C294.075 58.84 295.132 59.0567 296.016 59.49C296.918 59.9233 297.62 60.5387 298.122 61.336C298.625 62.1333 298.876 63.0953 298.876 64.222C298.876 65.3313 298.625 66.2933 298.122 67.108C297.62 67.9053 296.918 68.5207 296.016 68.954C295.132 69.3873 294.075 69.604 292.844 69.604H289.022V76H286.24V58.84H292.844ZM292.402 67.212C293.633 67.212 294.534 66.9607 295.106 66.458C295.696 65.938 295.99 65.1927 295.99 64.222C295.99 63.234 295.696 62.4887 295.106 61.986C294.534 61.466 293.633 61.206 292.402 61.206H289.022V67.212H292.402ZM312.005 58.58C313.669 58.58 315.108 58.9353 316.321 59.646C317.534 60.3567 318.47 61.3707 319.129 62.688C319.788 64.0053 320.117 65.5827 320.117 67.42C320.117 69.2573 319.788 70.8347 319.129 72.152C318.47 73.4693 317.534 74.4833 316.321 75.194C315.108 75.9047 313.669 76.26 312.005 76.26C310.358 76.26 308.928 75.9047 307.715 75.194C306.502 74.4833 305.566 73.4693 304.907 72.152C304.248 70.8347 303.919 69.2573 303.919 67.42C303.919 65.5827 304.248 64.0053 304.907 62.688C305.566 61.3707 306.502 60.3567 307.715 59.646C308.928 58.9353 310.358 58.58 312.005 58.58ZM312.005 60.998C310.93 60.998 310.003 61.2493 309.223 61.752C308.46 62.2547 307.871 62.9827 307.455 63.936C307.039 64.8893 306.831 66.0507 306.831 67.42C306.831 68.772 307.039 69.9333 307.455 70.904C307.871 71.8573 308.46 72.5853 309.223 73.088C310.003 73.5907 310.93 73.842 312.005 73.842C313.097 73.842 314.024 73.5907 314.787 73.088C315.567 72.5853 316.165 71.8573 316.581 70.904C316.997 69.9333 317.205 68.772 317.205 67.42C317.205 66.0507 316.997 64.8893 316.581 63.936C316.165 62.9827 315.567 62.2547 314.787 61.752C314.024 61.2493 313.097 60.998 312.005 60.998ZM340.66 58.84V76H337.358L330.728 65.184L329.064 62.142H329.038L329.142 64.924V76H326.594V58.84H329.87L336.474 69.63L338.164 72.724H338.19L338.086 69.916V58.84H340.66ZM353.929 58.58C355.471 58.58 356.806 58.8747 357.933 59.464C359.059 60.036 360.013 60.8853 360.793 62.012L358.921 63.806C358.262 62.8007 357.517 62.0813 356.685 61.648C355.87 61.1973 354.899 60.972 353.773 60.972C352.941 60.972 352.256 61.0847 351.719 61.31C351.181 61.5353 350.783 61.8387 350.523 62.22C350.28 62.584 350.159 63 350.159 63.468C350.159 64.0053 350.341 64.4733 350.705 64.872C351.086 65.2707 351.788 65.5827 352.811 65.808L356.295 66.588C357.959 66.952 359.137 67.5067 359.831 68.252C360.524 68.9973 360.871 69.942 360.871 71.086C360.871 72.1433 360.585 73.062 360.013 73.842C359.441 74.622 358.643 75.22 357.621 75.636C356.615 76.052 355.428 76.26 354.059 76.26C352.845 76.26 351.753 76.104 350.783 75.792C349.812 75.48 348.963 75.0553 348.235 74.518C347.507 73.9807 346.909 73.3653 346.441 72.672L348.365 70.748C348.729 71.3547 349.188 71.9007 349.743 72.386C350.297 72.854 350.939 73.218 351.667 73.478C352.412 73.738 353.235 73.868 354.137 73.868C354.934 73.868 355.619 73.7727 356.191 73.582C356.78 73.3913 357.222 73.114 357.517 72.75C357.829 72.3687 357.985 71.918 357.985 71.398C357.985 70.8953 357.811 70.4533 357.465 70.072C357.135 69.6907 356.511 69.396 355.593 69.188L351.823 68.33C350.783 68.1047 349.925 67.784 349.249 67.368C348.573 66.952 348.07 66.4493 347.741 65.86C347.411 65.2533 347.247 64.5773 347.247 63.832C347.247 62.8613 347.507 61.986 348.027 61.206C348.564 60.4087 349.335 59.776 350.341 59.308C351.346 58.8227 352.542 58.58 353.929 58.58ZM369.882 58.84V76H367.1V58.84H369.882ZM377.311 76V58.84H384.071C386.134 58.84 387.642 59.256 388.595 60.088C389.549 60.92 390.025 62.0727 390.025 63.546C390.025 64.4473 389.765 65.2533 389.245 65.964C388.725 66.6573 387.963 67.0993 386.957 67.29V67.316C388.067 67.4893 388.925 67.9487 389.531 68.694C390.155 69.422 390.467 70.2713 390.467 71.242C390.467 72.7153 389.93 73.8767 388.855 74.726C387.781 75.5753 386.221 76 384.175 76H377.311ZM380.041 73.686H384.305C385.397 73.686 386.212 73.4607 386.749 73.01C387.304 72.5593 387.581 71.9267 387.581 71.112C387.581 70.2973 387.304 69.6647 386.749 69.214C386.212 68.7633 385.397 68.538 384.305 68.538H380.041V73.686ZM380.041 66.224H383.863C386.047 66.224 387.139 65.3833 387.139 63.702C387.139 62.0207 386.047 61.18 383.863 61.18H380.041V66.224ZM399.648 73.608H409.112V76H396.866V58.84H399.648V73.608ZM414.771 76V58.84H427.199V61.232H417.553V66.172H425.093V68.512H417.553V73.608H427.563V76H414.771ZM188.796 106H185.858L184.22 101.502H177.018L175.38 106H172.52L178.994 88.84H182.322L188.796 106ZM177.798 99.24H183.44L180.632 91.232L177.798 99.24ZM201.173 88.84C203.01 88.84 204.466 89.2993 205.541 90.218C206.633 91.1367 207.179 92.376 207.179 93.936C207.179 95.548 206.633 96.796 205.541 97.68C204.466 98.5467 203.01 98.98 201.173 98.98L200.913 99.136H196.935V106H194.179V88.84H201.173ZM200.965 96.822C202.092 96.822 202.924 96.5967 203.461 96.146C204.016 95.678 204.293 94.9673 204.293 94.014C204.293 93.078 204.016 92.376 203.461 91.908C202.924 91.44 202.092 91.206 200.965 91.206H196.935V96.822H200.965ZM202.603 97.394L208.193 106H204.995L200.211 98.486L202.603 97.394ZM226.348 88.84V91.232H220.472V106H217.69V91.232H211.814V88.84H226.348ZM234.801 88.84V106H232.019V88.84H234.801ZM254.632 91.232H245.012V96.224H252.552V98.616H245.012V106H242.23V88.84H254.632V91.232ZM263.247 88.84V106H260.465V88.84H263.247ZM284.898 101.45C284.551 102.49 284.031 103.374 283.338 104.102C282.645 104.813 281.83 105.35 280.894 105.714C279.958 106.078 278.927 106.26 277.8 106.26C276.153 106.26 274.723 105.905 273.51 105.194C272.297 104.483 271.361 103.469 270.702 102.152C270.043 100.835 269.714 99.2573 269.714 97.42C269.714 95.5827 270.043 94.0053 270.702 92.688C271.361 91.3707 272.297 90.3567 273.51 89.646C274.723 88.9353 276.145 88.58 277.774 88.58C278.901 88.58 279.915 88.736 280.816 89.048C281.735 89.36 282.515 89.828 283.156 90.452C283.797 91.076 284.291 91.856 284.638 92.792L282.012 93.962C281.665 92.9393 281.163 92.194 280.504 91.726C279.845 91.2407 278.987 90.998 277.93 90.998C276.873 90.998 275.945 91.2493 275.148 91.752C274.351 92.2547 273.727 92.9827 273.276 93.936C272.843 94.8893 272.626 96.0507 272.626 97.42C272.626 98.772 272.834 99.9333 273.25 100.904C273.666 101.857 274.264 102.585 275.044 103.088C275.824 103.591 276.76 103.842 277.852 103.842C278.909 103.842 279.819 103.573 280.582 103.036C281.362 102.481 281.917 101.658 282.246 100.566L284.898 101.45ZM293.571 88.84V106H290.789V88.84H293.571ZM315.248 106H312.31L310.672 101.502H303.47L301.832 106H298.972L305.446 88.84H308.774L315.248 106ZM304.25 99.24H309.892L307.084 91.232L304.25 99.24ZM323.413 103.608H332.877V106H320.631V88.84H323.413V103.608ZM351.427 88.84V106H348.645V88.84H351.427ZM372.923 88.84V106H369.621L362.991 95.184L361.327 92.142H361.301L361.405 94.924V106H358.857V88.84H362.133L368.737 99.63L370.427 102.724H370.453L370.349 99.916V88.84H372.923ZM393.107 88.84V91.232H387.231V106H384.449V91.232H378.573V88.84H393.107ZM398.779 106V88.84H411.207V91.232H401.561V96.172H409.101V98.512H401.561V103.608H411.571V106H398.779ZM420.43 103.608H429.894V106H417.648V88.84H420.43V103.608ZM438.334 103.608H447.798V106H435.552V88.84H438.334V103.608ZM456.239 88.84V106H453.457V88.84H456.239ZM470.636 106.26C469.024 106.26 467.629 105.905 466.45 105.194C465.271 104.483 464.353 103.478 463.694 102.178C463.035 100.861 462.706 99.2747 462.706 97.42C462.706 95.6 463.044 94.0313 463.72 92.714C464.413 91.3967 465.384 90.3827 466.632 89.672C467.897 88.944 469.345 88.58 470.974 88.58C472.759 88.58 474.198 88.9093 475.29 89.568C476.399 90.2267 477.283 91.2493 477.942 92.636L475.368 93.858C475.039 92.9047 474.493 92.194 473.73 91.726C472.985 91.2407 472.075 90.998 471 90.998C469.925 90.998 468.981 91.2493 468.166 91.752C467.369 92.2547 466.745 92.9913 466.294 93.962C465.843 94.9153 465.618 96.068 465.618 97.42C465.618 98.7893 465.817 99.9593 466.216 100.93C466.615 101.883 467.213 102.611 468.01 103.114C468.825 103.617 469.821 103.868 471 103.868C471.641 103.868 472.239 103.79 472.794 103.634C473.349 103.461 473.834 103.218 474.25 102.906C474.666 102.577 474.987 102.169 475.212 101.684C475.455 101.181 475.576 100.592 475.576 99.916V99.422H470.584V97.16H478.046V106H475.966L475.81 102.542L476.33 102.802C475.914 103.894 475.221 104.743 474.25 105.35C473.297 105.957 472.092 106.26 470.636 106.26ZM484.822 106V88.84H497.25V91.232H487.604V96.172H495.144V98.512H487.604V103.608H497.614V106H484.822ZM517.758 88.84V106H514.456L507.826 95.184L506.162 92.142H506.136L506.24 94.924V106H503.692V88.84H506.968L513.572 99.63L515.262 102.724H515.288L515.184 99.916V88.84H517.758ZM539.398 101.45C539.052 102.49 538.532 103.374 537.838 104.102C537.145 104.813 536.33 105.35 535.394 105.714C534.458 106.078 533.427 106.26 532.3 106.26C530.654 106.26 529.224 105.905 528.01 105.194C526.797 104.483 525.861 103.469 525.202 102.152C524.544 100.835 524.214 99.2573 524.214 97.42C524.214 95.5827 524.544 94.0053 525.202 92.688C525.861 91.3707 526.797 90.3567 528.01 89.646C529.224 88.9353 530.645 88.58 532.274 88.58C533.401 88.58 534.415 88.736 535.316 89.048C536.235 89.36 537.015 89.828 537.656 90.452C538.298 91.076 538.792 91.856 539.138 92.792L536.512 93.962C536.166 92.9393 535.663 92.194 535.004 91.726C534.346 91.2407 533.488 90.998 532.43 90.998C531.373 90.998 530.446 91.2493 529.648 91.752C528.851 92.2547 528.227 92.9827 527.776 93.936C527.343 94.8893 527.126 96.0507 527.126 97.42C527.126 98.772 527.334 99.9333 527.75 100.904C528.166 101.857 528.764 102.585 529.544 103.088C530.324 103.591 531.26 103.842 532.352 103.842C533.41 103.842 534.32 103.573 535.082 103.036C535.862 102.481 536.417 101.658 536.746 100.566L539.398 101.45ZM545.29 106V88.84H557.718V91.232H548.072V96.172H555.612V98.512H548.072V103.608H558.082V106H545.29Z" fill="#6C6D6D"/>
<defs>
<linearGradient id="paint0_linear_134_7" x1="10.2745" y1="15.0144" x2="10.2745" y2="25.0099" gradientUnits="userSpaceOnUse">
<stop stop-color="#015450"/>
<stop offset="1" stop-color="#01D553"/>
</linearGradient>
<linearGradient id="paint1_linear_134_7" x1="40.2475" y1="54.6591" x2="40.2475" y2="133.908" gradientUnits="userSpaceOnUse">
<stop stop-color="#015450"/>
<stop offset="1" stop-color="#01D553"/>
</linearGradient>
<linearGradient id="paint2_linear_134_7" x1="125.179" y1="-0.30941" x2="125.179" y2="114.947" gradientUnits="userSpaceOnUse">
<stop stop-color="#015450"/>
<stop offset="1" stop-color="#01D553"/>
</linearGradient>
<linearGradient id="paint3_linear_134_7" x1="25.2577" y1="64.776" x2="25.2577" y2="-0.983883" gradientUnits="userSpaceOnUse">
<stop stop-color="#015450"/>
<stop offset="1" stop-color="#01D553"/>
</linearGradient>
<linearGradient id="paint4_linear_134_7" x1="115.187" y1="3.40012" x2="115.187" y2="115.361" gradientUnits="userSpaceOnUse">
<stop stop-color="#015450"/>
<stop offset="1" stop-color="#01D553"/>
</linearGradient>
<linearGradient id="paint5_linear_134_7" x1="65.2262" y1="10.0081" x2="65.2262" y2="44.9941" gradientUnits="userSpaceOnUse">
<stop stop-color="#015450"/>
<stop offset="1" stop-color="#01D553"/>
</linearGradient>
<linearGradient id="paint6_linear_134_7" x1="92.707" y1="29.7041" x2="92.707" y2="133.571" gradientUnits="userSpaceOnUse">
<stop stop-color="#015450"/>
<stop offset="1" stop-color="#01D553"/>
</linearGradient>
<linearGradient id="paint7_linear_134_7" x1="78.793" y1="135" x2="78.793" y2="10.1447" gradientUnits="userSpaceOnUse">
<stop stop-color="#015450"/>
<stop offset="1" stop-color="#01D553"/>
</linearGradient>
<linearGradient id="paint8_linear_134_7" x1="40.2778" y1="0.0151367" x2="40.2778" y2="63.4271" gradientUnits="userSpaceOnUse">
<stop stop-color="#015450"/>
<stop offset="1" stop-color="#01D553"/>
</linearGradient>
<linearGradient id="paint9_linear_134_7" x1="32.7577" y1="-1.32109" x2="32.7577" y2="89.9663" gradientUnits="userSpaceOnUse">
<stop stop-color="#015450"/>
<stop offset="1" stop-color="#01D553"/>
</linearGradient>
</defs>
</svg>
